<svg xmlns="http://www.w3.org/2000/svg" xmlns:xlink="http://www.w3.org/1999/xlink" width="175" zoomAndPan="magnify" viewBox="0 0 131.25 30.000001" height="40" preserveAspectRatio="xMidYMid meet" version="1.0"><defs><g/></defs><g fill="#ff00ff" fill-opacity="1"><g transform="translate(27.302622, 24.672339)"><g><path d="M 1.414062 -16.417969 L 1.414062 -3.398438 L 4.8125 -3.398438 L 4.8125 0 L 11.605469 0 L 11.605469 -3.398438 L 4.8125 -3.398438 L 4.8125 -16.417969 Z M 4.8125 -19.8125 L 4.8125 -16.417969 L 11.605469 -16.417969 L 11.605469 -13.019531 L 15.003906 -13.019531 L 15.003906 -16.417969 L 11.605469 -16.417969 L 11.605469 -19.8125 Z M 15.003906 -3.398438 L 15.003906 -9.90625 L 8.207031 -9.90625 L 8.207031 -6.511719 L 11.605469 -6.511719 L 11.605469 -3.398438 Z M 15.003906 -3.398438 "/></g></g></g><g fill="#ff00ff" fill-opacity="1"><g transform="translate(46.74772, 24.672339)"><g><path d="M 4.8125 -16.417969 L 11.605469 -16.417969 L 11.605469 -11.605469 L 4.8125 -11.605469 L 4.8125 -16.417969 L 1.414062 -16.417969 L 1.414062 0 L 4.8125 0 L 4.8125 -8.207031 L 11.605469 -8.207031 L 11.605469 0 L 15.003906 0 L 15.003906 -16.417969 L 11.605469 -16.417969 L 11.605469 -19.8125 L 4.8125 -19.8125 Z M 4.8125 -16.417969 "/></g></g></g><g fill="#ff00ff" fill-opacity="1"><g transform="translate(66.164514, 24.672339)"><g><path d="M 1.414062 -3.398438 L 1.414062 0 L 4.8125 0 L 4.8125 -3.398438 Z M 1.414062 -3.398438 "/></g></g></g><g fill="#ff00ff" fill-opacity="1"><g transform="translate(75.420252, 24.672339)"><g><path d="M 1.414062 -3.398438 L 1.414062 0 L 4.8125 0 L 4.8125 -3.398438 Z M 1.414062 -3.398438 "/></g></g></g><g fill="#ff00ff" fill-opacity="1"><g transform="translate(84.675994, 24.672339)"><g><path d="M 1.414062 -19.8125 L 1.414062 0 L 4.8125 0 L 4.8125 -8.207031 L 11.605469 -8.207031 L 11.605469 0 L 15.003906 0 L 15.003906 -19.8125 L 11.605469 -19.8125 L 11.605469 -11.605469 L 4.8125 -11.605469 L 4.8125 -19.8125 Z M 1.414062 -19.8125 "/></g></g></g><g fill="#00ffff" fill-opacity="1"><g transform="translate(29.431292, 25.203076)"><g><path d="M 1.414062 -16.417969 L 1.414062 -3.398438 L 4.8125 -3.398438 L 4.8125 0 L 11.605469 0 L 11.605469 -3.398438 L 4.8125 -3.398438 L 4.8125 -16.417969 Z M 4.8125 -19.8125 L 4.8125 -16.417969 L 11.605469 -16.417969 L 11.605469 -13.019531 L 15.003906 -13.019531 L 15.003906 -16.417969 L 11.605469 -16.417969 L 11.605469 -19.8125 Z M 15.003906 -3.398438 L 15.003906 -9.90625 L 8.207031 -9.90625 L 8.207031 -6.511719 L 11.605469 -6.511719 L 11.605469 -3.398438 Z M 15.003906 -3.398438 "/></g></g></g><g fill="#00ffff" fill-opacity="1"><g transform="translate(48.87639, 25.203076)"><g><path d="M 4.8125 -16.417969 L 11.605469 -16.417969 L 11.605469 -11.605469 L 4.8125 -11.605469 L 4.8125 -16.417969 L 1.414062 -16.417969 L 1.414062 0 L 4.8125 0 L 4.8125 -8.207031 L 11.605469 -8.207031 L 11.605469 0 L 15.003906 0 L 15.003906 -16.417969 L 11.605469 -16.417969 L 11.605469 -19.8125 L 4.8125 -19.8125 Z M 4.8125 -16.417969 "/></g></g></g><g fill="#00ffff" fill-opacity="1"><g transform="translate(68.293184, 25.203076)"><g><path d="M 1.414062 -3.398438 L 1.414062 0 L 4.8125 0 L 4.8125 -3.398438 Z M 1.414062 -3.398438 "/></g></g></g><g fill="#00ffff" fill-opacity="1"><g transform="translate(77.548922, 25.203076)"><g><path d="M 1.414062 -3.398438 L 1.414062 0 L 4.8125 0 L 4.8125 -3.398438 Z M 1.414062 -3.398438 "/></g></g></g><g fill="#00ffff" fill-opacity="1"><g transform="translate(86.804664, 25.203076)"><g><path d="M 1.414062 -19.8125 L 1.414062 0 L 4.8125 0 L 4.8125 -8.207031 L 11.605469 -8.207031 L 11.605469 0 L 15.003906 0 L 15.003906 -19.8125 L 11.605469 -19.8125 L 11.605469 -11.605469 L 4.8125 -11.605469 L 4.8125 -19.8125 Z M 1.414062 -19.8125 "/></g></g></g><g fill="#3b1b72" fill-opacity="1"><g transform="translate(28.366957, 24.937707)"><g><path d="M 1.414062 -16.417969 L 1.414062 -3.398438 L 4.8125 -3.398438 L 4.8125 0 L 11.605469 0 L 11.605469 -3.398438 L 4.8125 -3.398438 L 4.8125 -16.417969 Z M 4.8125 -19.8125 L 4.8125 -16.417969 L 11.605469 -16.417969 L 11.605469 -13.019531 L 15.003906 -13.019531 L 15.003906 -16.417969 L 11.605469 -16.417969 L 11.605469 -19.8125 Z M 15.003906 -3.398438 L 15.003906 -9.90625 L 8.207031 -9.90625 L 8.207031 -6.511719 L 11.605469 -6.511719 L 11.605469 -3.398438 Z M 15.003906 -3.398438 "/></g></g></g><g fill="#3b1b72" fill-opacity="1"><g transform="translate(47.812055, 24.937707)"><g><path d="M 4.8125 -16.417969 L 11.605469 -16.417969 L 11.605469 -11.605469 L 4.8125 -11.605469 L 4.8125 -16.417969 L 1.414062 -16.417969 L 1.414062 0 L 4.8125 0 L 4.8125 -8.207031 L 11.605469 -8.207031 L 11.605469 0 L 15.003906 0 L 15.003906 -16.417969 L 11.605469 -16.417969 L 11.605469 -19.8125 L 4.8125 -19.8125 Z M 4.8125 -16.417969 "/></g></g></g><g fill="#3b1b72" fill-opacity="1"><g transform="translate(67.228849, 24.937707)"><g><path d="M 1.414062 -3.398438 L 1.414062 0 L 4.8125 0 L 4.8125 -3.398438 Z M 1.414062 -3.398438 "/></g></g></g><g fill="#3b1b72" fill-opacity="1"><g transform="translate(76.484587, 24.937707)"><g><path d="M 1.414062 -3.398438 L 1.414062 0 L 4.8125 0 L 4.8125 -3.398438 Z M 1.414062 -3.398438 "/></g></g></g><g fill="#3b1b72" fill-opacity="1"><g transform="translate(85.740329, 24.937707)"><g><path d="M 1.414062 -19.8125 L 1.414062 0 L 4.8125 0 L 4.8125 -8.207031 L 11.605469 -8.207031 L 11.605469 0 L 15.003906 0 L 15.003906 -19.8125 L 11.605469 -19.8125 L 11.605469 -11.605469 L 4.8125 -11.605469 L 4.8125 -19.8125 Z M 1.414062 -19.8125 "/></g></g></g></svg>