<svg xmlns="http://www.w3.org/2000/svg" xmlns:xlink="http://www.w3.org/1999/xlink" width="175" zoomAndPan="magnify" viewBox="0 0 131.25 30.000001" height="40" preserveAspectRatio="xMidYMid meet" version="1.0"><defs><g/></defs><g fill="#ff00ff" fill-opacity="1"><g transform="translate(22.220736, 24.672339)"><g><path d="M 1.414062 -16.417969 L 1.414062 -3.398438 L 4.8125 -3.398438 L 4.8125 0 L 11.605469 0 L 11.605469 -3.398438 L 4.8125 -3.398438 L 4.8125 -16.417969 Z M 4.8125 -19.8125 L 4.8125 -16.417969 L 11.605469 -16.417969 L 11.605469 -13.019531 L 15.003906 -13.019531 L 15.003906 -16.417969 L 11.605469 -16.417969 L 11.605469 -19.8125 Z M 15.003906 -3.398438 L 15.003906 -9.90625 L 8.207031 -9.90625 L 8.207031 -6.511719 L 11.605469 -6.511719 L 11.605469 -3.398438 Z M 15.003906 -3.398438 "/></g></g></g><g fill="#ff00ff" fill-opacity="1"><g transform="translate(41.665834, 24.672339)"><g><path d="M 4.8125 -16.417969 L 11.605469 -16.417969 L 11.605469 -11.605469 L 4.8125 -11.605469 L 4.8125 -16.417969 L 1.414062 -16.417969 L 1.414062 0 L 4.8125 0 L 4.8125 -8.207031 L 11.605469 -8.207031 L 11.605469 0 L 15.003906 0 L 15.003906 -16.417969 L 11.605469 -16.417969 L 11.605469 -19.8125 L 4.8125 -19.8125 Z M 4.8125 -16.417969 "/></g></g></g><g fill="#ff00ff" fill-opacity="1"><g transform="translate(61.082628, 24.672339)"><g><path d="M 1.414062 -3.398438 L 1.414062 0 L 4.8125 0 L 4.8125 -3.398438 Z M 1.414062 -3.398438 "/></g></g></g><g fill="#ff00ff" fill-opacity="1"><g transform="translate(70.338366, 24.672339)"><g><path d="M 1.414062 -19.8125 L 1.414062 0 L 4.8125 0 L 4.8125 -8.207031 L 11.605469 -8.207031 L 11.605469 0 L 15.003906 0 L 15.003906 -19.8125 L 11.605469 -19.8125 L 11.605469 -11.605469 L 4.8125 -11.605469 L 4.8125 -19.8125 Z M 1.414062 -19.8125 "/></g></g></g><g fill="#ff00ff" fill-opacity="1"><g transform="translate(89.783461, 24.672339)"><g><path d="M 4.8125 -3.398438 L 4.8125 -19.8125 L 1.414062 -19.8125 L 1.414062 -3.398438 L 4.8125 -3.398438 L 4.8125 0 L 11.605469 0 L 11.605469 -3.398438 Z M 11.605469 -19.8125 L 11.605469 -3.398438 L 15.003906 -3.398438 L 15.003906 -19.8125 Z M 11.605469 -19.8125 "/></g></g></g><g fill="#00ffff" fill-opacity="1"><g transform="translate(24.349406, 25.203076)"><g><path d="M 1.414062 -16.417969 L 1.414062 -3.398438 L 4.8125 -3.398438 L 4.8125 0 L 11.605469 0 L 11.605469 -3.398438 L 4.8125 -3.398438 L 4.8125 -16.417969 Z M 4.8125 -19.8125 L 4.8125 -16.417969 L 11.605469 -16.417969 L 11.605469 -13.019531 L 15.003906 -13.019531 L 15.003906 -16.417969 L 11.605469 -16.417969 L 11.605469 -19.8125 Z M 15.003906 -3.398438 L 15.003906 -9.90625 L 8.207031 -9.90625 L 8.207031 -6.511719 L 11.605469 -6.511719 L 11.605469 -3.398438 Z M 15.003906 -3.398438 "/></g></g></g><g fill="#00ffff" fill-opacity="1"><g transform="translate(43.794504, 25.203076)"><g><path d="M 4.8125 -16.417969 L 11.605469 -16.417969 L 11.605469 -11.605469 L 4.8125 -11.605469 L 4.8125 -16.417969 L 1.414062 -16.417969 L 1.414062 0 L 4.8125 0 L 4.8125 -8.207031 L 11.605469 -8.207031 L 11.605469 0 L 15.003906 0 L 15.003906 -16.417969 L 11.605469 -16.417969 L 11.605469 -19.8125 L 4.8125 -19.8125 Z M 4.8125 -16.417969 "/></g></g></g><g fill="#00ffff" fill-opacity="1"><g transform="translate(63.211298, 25.203076)"><g><path d="M 1.414062 -3.398438 L 1.414062 0 L 4.8125 0 L 4.8125 -3.398438 Z M 1.414062 -3.398438 "/></g></g></g><g fill="#00ffff" fill-opacity="1"><g transform="translate(72.467036, 25.203076)"><g><path d="M 1.414062 -19.8125 L 1.414062 0 L 4.8125 0 L 4.8125 -8.207031 L 11.605469 -8.207031 L 11.605469 0 L 15.003906 0 L 15.003906 -19.8125 L 11.605469 -19.8125 L 11.605469 -11.605469 L 4.8125 -11.605469 L 4.8125 -19.8125 Z M 1.414062 -19.8125 "/></g></g></g><g fill="#00ffff" fill-opacity="1"><g transform="translate(91.912131, 25.203076)"><g><path d="M 4.8125 -3.398438 L 4.8125 -19.8125 L 1.414062 -19.8125 L 1.414062 -3.398438 L 4.8125 -3.398438 L 4.8125 0 L 11.605469 0 L 11.605469 -3.398438 Z M 11.605469 -19.8125 L 11.605469 -3.398438 L 15.003906 -3.398438 L 15.003906 -19.8125 Z M 11.605469 -19.8125 "/></g></g></g><g fill="#3b1b72" fill-opacity="1"><g transform="translate(23.285071, 24.937707)"><g><path d="M 1.414062 -16.417969 L 1.414062 -3.398438 L 4.8125 -3.398438 L 4.8125 0 L 11.605469 0 L 11.605469 -3.398438 L 4.8125 -3.398438 L 4.8125 -16.417969 Z M 4.8125 -19.8125 L 4.8125 -16.417969 L 11.605469 -16.417969 L 11.605469 -13.019531 L 15.003906 -13.019531 L 15.003906 -16.417969 L 11.605469 -16.417969 L 11.605469 -19.8125 Z M 15.003906 -3.398438 L 15.003906 -9.90625 L 8.207031 -9.90625 L 8.207031 -6.511719 L 11.605469 -6.511719 L 11.605469 -3.398438 Z M 15.003906 -3.398438 "/></g></g></g><g fill="#3b1b72" fill-opacity="1"><g transform="translate(42.730169, 24.937707)"><g><path d="M 4.8125 -16.417969 L 11.605469 -16.417969 L 11.605469 -11.605469 L 4.8125 -11.605469 L 4.8125 -16.417969 L 1.414062 -16.417969 L 1.414062 0 L 4.8125 0 L 4.8125 -8.207031 L 11.605469 -8.207031 L 11.605469 0 L 15.003906 0 L 15.003906 -16.417969 L 11.605469 -16.417969 L 11.605469 -19.8125 L 4.8125 -19.8125 Z M 4.8125 -16.417969 "/></g></g></g><g fill="#3b1b72" fill-opacity="1"><g transform="translate(62.146963, 24.937707)"><g><path d="M 1.414062 -3.398438 L 1.414062 0 L 4.8125 0 L 4.8125 -3.398438 Z M 1.414062 -3.398438 "/></g></g></g><g fill="#3b1b72" fill-opacity="1"><g transform="translate(71.402701, 24.937707)"><g><path d="M 1.414062 -19.8125 L 1.414062 0 L 4.8125 0 L 4.8125 -8.207031 L 11.605469 -8.207031 L 11.605469 0 L 15.003906 0 L 15.003906 -19.8125 L 11.605469 -19.8125 L 11.605469 -11.605469 L 4.8125 -11.605469 L 4.8125 -19.8125 Z M 1.414062 -19.8125 "/></g></g></g><g fill="#3b1b72" fill-opacity="1"><g transform="translate(90.847796, 24.937707)"><g><path d="M 4.8125 -3.398438 L 4.8125 -19.8125 L 1.414062 -19.8125 L 1.414062 -3.398438 L 4.8125 -3.398438 L 4.8125 0 L 11.605469 0 L 11.605469 -3.398438 Z M 11.605469 -19.8125 L 11.605469 -3.398438 L 15.003906 -3.398438 L 15.003906 -19.8125 Z M 11.605469 -19.8125 "/></g></g></g></svg>