<svg xmlns="http://www.w3.org/2000/svg" xmlns:xlink="http://www.w3.org/1999/xlink" width="175" zoomAndPan="magnify" viewBox="0 0 131.25 30.000001" height="40" preserveAspectRatio="xMidYMid meet" version="1.0"><defs><g/></defs><g fill="#ff00ff" fill-opacity="1"><g transform="translate(17.13885, 24.672335)"><g><path d="M 1.414062 -16.417969 L 1.414062 -3.398438 L 4.8125 -3.398438 L 4.8125 0 L 11.605469 0 L 11.605469 -3.398438 L 4.8125 -3.398438 L 4.8125 -16.417969 Z M 4.8125 -19.8125 L 4.8125 -16.417969 L 11.605469 -16.417969 L 11.605469 -13.019531 L 15.003906 -13.019531 L 15.003906 -16.417969 L 11.605469 -16.417969 L 11.605469 -19.8125 Z M 15.003906 -3.398438 L 15.003906 -9.90625 L 8.207031 -9.90625 L 8.207031 -6.511719 L 11.605469 -6.511719 L 11.605469 -3.398438 Z M 15.003906 -3.398438 "/></g></g></g><g fill="#ff00ff" fill-opacity="1"><g transform="translate(36.583947, 24.672335)"><g><path d="M 4.8125 -16.417969 L 11.605469 -16.417969 L 11.605469 -11.605469 L 4.8125 -11.605469 L 4.8125 -16.417969 L 1.414062 -16.417969 L 1.414062 0 L 4.8125 0 L 4.8125 -8.207031 L 11.605469 -8.207031 L 11.605469 0 L 15.003906 0 L 15.003906 -16.417969 L 11.605469 -16.417969 L 11.605469 -19.8125 L 4.8125 -19.8125 Z M 4.8125 -16.417969 "/></g></g></g><g fill="#ff00ff" fill-opacity="1"><g transform="translate(56.000741, 24.672335)"><g><path d="M 1.414062 -19.8125 L 1.414062 0 L 4.8125 0 L 4.8125 -8.207031 L 11.605469 -8.207031 L 11.605469 0 L 15.003906 0 L 15.003906 -19.8125 L 11.605469 -19.8125 L 11.605469 -11.605469 L 4.8125 -11.605469 L 4.8125 -19.8125 Z M 1.414062 -19.8125 "/></g></g></g><g fill="#ff00ff" fill-opacity="1"><g transform="translate(75.445841, 24.672335)"><g><path d="M 4.8125 -3.398438 L 4.8125 -19.8125 L 1.414062 -19.8125 L 1.414062 -3.398438 L 4.8125 -3.398438 L 4.8125 0 L 11.605469 0 L 11.605469 -3.398438 Z M 11.605469 -19.8125 L 11.605469 -3.398438 L 15.003906 -3.398438 L 15.003906 -19.8125 Z M 11.605469 -19.8125 "/></g></g></g><g fill="#ff00ff" fill-opacity="1"><g transform="translate(94.862633, 24.672335)"><g><path d="M 4.8125 -8.207031 L 11.605469 -8.207031 L 11.605469 -3.398438 L 15.003906 -3.398438 L 15.003906 -8.207031 L 11.605469 -8.207031 L 11.605469 -11.605469 L 4.8125 -11.605469 L 4.8125 -16.417969 L 11.605469 -16.417969 L 11.605469 -11.605469 L 15.003906 -11.605469 L 15.003906 -16.417969 L 11.605469 -16.417969 L 11.605469 -19.8125 L 1.414062 -19.8125 L 1.414062 0 L 11.605469 0 L 11.605469 -3.398438 L 4.8125 -3.398438 Z M 4.8125 -8.207031 "/></g></g></g><g fill="#00ffff" fill-opacity="1"><g transform="translate(19.26752, 25.203073)"><g><path d="M 1.414062 -16.417969 L 1.414062 -3.398438 L 4.8125 -3.398438 L 4.8125 0 L 11.605469 0 L 11.605469 -3.398438 L 4.8125 -3.398438 L 4.8125 -16.417969 Z M 4.8125 -19.8125 L 4.8125 -16.417969 L 11.605469 -16.417969 L 11.605469 -13.019531 L 15.003906 -13.019531 L 15.003906 -16.417969 L 11.605469 -16.417969 L 11.605469 -19.8125 Z M 15.003906 -3.398438 L 15.003906 -9.90625 L 8.207031 -9.90625 L 8.207031 -6.511719 L 11.605469 -6.511719 L 11.605469 -3.398438 Z M 15.003906 -3.398438 "/></g></g></g><g fill="#00ffff" fill-opacity="1"><g transform="translate(38.712618, 25.203073)"><g><path d="M 4.8125 -16.417969 L 11.605469 -16.417969 L 11.605469 -11.605469 L 4.8125 -11.605469 L 4.8125 -16.417969 L 1.414062 -16.417969 L 1.414062 0 L 4.8125 0 L 4.8125 -8.207031 L 11.605469 -8.207031 L 11.605469 0 L 15.003906 0 L 15.003906 -16.417969 L 11.605469 -16.417969 L 11.605469 -19.8125 L 4.8125 -19.8125 Z M 4.8125 -16.417969 "/></g></g></g><g fill="#00ffff" fill-opacity="1"><g transform="translate(58.129412, 25.203073)"><g><path d="M 1.414062 -19.8125 L 1.414062 0 L 4.8125 0 L 4.8125 -8.207031 L 11.605469 -8.207031 L 11.605469 0 L 15.003906 0 L 15.003906 -19.8125 L 11.605469 -19.8125 L 11.605469 -11.605469 L 4.8125 -11.605469 L 4.8125 -19.8125 Z M 1.414062 -19.8125 "/></g></g></g><g fill="#00ffff" fill-opacity="1"><g transform="translate(77.574511, 25.203073)"><g><path d="M 4.8125 -3.398438 L 4.8125 -19.8125 L 1.414062 -19.8125 L 1.414062 -3.398438 L 4.8125 -3.398438 L 4.8125 0 L 11.605469 0 L 11.605469 -3.398438 Z M 11.605469 -19.8125 L 11.605469 -3.398438 L 15.003906 -3.398438 L 15.003906 -19.8125 Z M 11.605469 -19.8125 "/></g></g></g><g fill="#00ffff" fill-opacity="1"><g transform="translate(96.991303, 25.203073)"><g><path d="M 4.8125 -8.207031 L 11.605469 -8.207031 L 11.605469 -3.398438 L 15.003906 -3.398438 L 15.003906 -8.207031 L 11.605469 -8.207031 L 11.605469 -11.605469 L 4.8125 -11.605469 L 4.8125 -16.417969 L 11.605469 -16.417969 L 11.605469 -11.605469 L 15.003906 -11.605469 L 15.003906 -16.417969 L 11.605469 -16.417969 L 11.605469 -19.8125 L 1.414062 -19.8125 L 1.414062 0 L 11.605469 0 L 11.605469 -3.398438 L 4.8125 -3.398438 Z M 4.8125 -8.207031 "/></g></g></g><g fill="#3b1b72" fill-opacity="1"><g transform="translate(18.203185, 24.937704)"><g><path d="M 1.414062 -16.417969 L 1.414062 -3.398438 L 4.8125 -3.398438 L 4.8125 0 L 11.605469 0 L 11.605469 -3.398438 L 4.8125 -3.398438 L 4.8125 -16.417969 Z M 4.8125 -19.8125 L 4.8125 -16.417969 L 11.605469 -16.417969 L 11.605469 -13.019531 L 15.003906 -13.019531 L 15.003906 -16.417969 L 11.605469 -16.417969 L 11.605469 -19.8125 Z M 15.003906 -3.398438 L 15.003906 -9.90625 L 8.207031 -9.90625 L 8.207031 -6.511719 L 11.605469 -6.511719 L 11.605469 -3.398438 Z M 15.003906 -3.398438 "/></g></g></g><g fill="#3b1b72" fill-opacity="1"><g transform="translate(37.648283, 24.937704)"><g><path d="M 4.8125 -16.417969 L 11.605469 -16.417969 L 11.605469 -11.605469 L 4.8125 -11.605469 L 4.8125 -16.417969 L 1.414062 -16.417969 L 1.414062 0 L 4.8125 0 L 4.8125 -8.207031 L 11.605469 -8.207031 L 11.605469 0 L 15.003906 0 L 15.003906 -16.417969 L 11.605469 -16.417969 L 11.605469 -19.8125 L 4.8125 -19.8125 Z M 4.8125 -16.417969 "/></g></g></g><g fill="#3b1b72" fill-opacity="1"><g transform="translate(57.065076, 24.937704)"><g><path d="M 1.414062 -19.8125 L 1.414062 0 L 4.8125 0 L 4.8125 -8.207031 L 11.605469 -8.207031 L 11.605469 0 L 15.003906 0 L 15.003906 -19.8125 L 11.605469 -19.8125 L 11.605469 -11.605469 L 4.8125 -11.605469 L 4.8125 -19.8125 Z M 1.414062 -19.8125 "/></g></g></g><g fill="#3b1b72" fill-opacity="1"><g transform="translate(76.510176, 24.937704)"><g><path d="M 4.8125 -3.398438 L 4.8125 -19.8125 L 1.414062 -19.8125 L 1.414062 -3.398438 L 4.8125 -3.398438 L 4.8125 0 L 11.605469 0 L 11.605469 -3.398438 Z M 11.605469 -19.8125 L 11.605469 -3.398438 L 15.003906 -3.398438 L 15.003906 -19.8125 Z M 11.605469 -19.8125 "/></g></g></g><g fill="#3b1b72" fill-opacity="1"><g transform="translate(95.926968, 24.937704)"><g><path d="M 4.8125 -8.207031 L 11.605469 -8.207031 L 11.605469 -3.398438 L 15.003906 -3.398438 L 15.003906 -8.207031 L 11.605469 -8.207031 L 11.605469 -11.605469 L 4.8125 -11.605469 L 4.8125 -16.417969 L 11.605469 -16.417969 L 11.605469 -11.605469 L 15.003906 -11.605469 L 15.003906 -16.417969 L 11.605469 -16.417969 L 11.605469 -19.8125 L 1.414062 -19.8125 L 1.414062 0 L 11.605469 0 L 11.605469 -3.398438 L 4.8125 -3.398438 Z M 4.8125 -8.207031 "/></g></g></g></svg>