<svg xmlns="http://www.w3.org/2000/svg" xmlns:xlink="http://www.w3.org/1999/xlink" width="175" zoomAndPan="magnify" viewBox="0 0 131.25 30.000001" height="40" preserveAspectRatio="xMidYMid meet" version="1.0"><defs><g/></defs><g fill="#ff00ff" fill-opacity="1"><g transform="translate(37.024148, 24.672342)"><g><path d="M 1.414062 -16.417969 L 1.414062 -3.398438 L 4.8125 -3.398438 L 4.8125 0 L 11.605469 0 L 11.605469 -3.398438 L 4.8125 -3.398438 L 4.8125 -16.417969 Z M 4.8125 -19.8125 L 4.8125 -16.417969 L 11.605469 -16.417969 L 11.605469 -13.019531 L 15.003906 -13.019531 L 15.003906 -16.417969 L 11.605469 -16.417969 L 11.605469 -19.8125 Z M 15.003906 -3.398438 L 15.003906 -9.90625 L 8.207031 -9.90625 L 8.207031 -6.511719 L 11.605469 -6.511719 L 11.605469 -3.398438 Z M 15.003906 -3.398438 "/></g></g></g><g fill="#ff00ff" fill-opacity="1"><g transform="translate(56.469246, 24.672342)"><g><path d="M 4.8125 -16.417969 L 11.605469 -16.417969 L 11.605469 -11.605469 L 4.8125 -11.605469 L 4.8125 -16.417969 L 1.414062 -16.417969 L 1.414062 0 L 4.8125 0 L 4.8125 -8.207031 L 11.605469 -8.207031 L 11.605469 0 L 15.003906 0 L 15.003906 -16.417969 L 11.605469 -16.417969 L 11.605469 -19.8125 L 4.8125 -19.8125 Z M 4.8125 -16.417969 "/></g></g></g><g fill="#ff00ff" fill-opacity="1"><g transform="translate(75.88604, 24.672342)"><g><path d="M 1.414062 -3.398438 L 1.414062 0 L 4.8125 0 L 4.8125 -3.398438 Z M 1.414062 -3.398438 "/></g></g></g><g fill="#ff00ff" fill-opacity="1"><g transform="translate(85.141778, 24.672342)"><g><path d="M 1.414062 -3.398438 L 1.414062 0 L 4.8125 0 L 4.8125 -3.398438 Z M 1.414062 -3.398438 "/></g></g></g><g fill="#00ffff" fill-opacity="1"><g transform="translate(39.152818, 25.20308)"><g><path d="M 1.414062 -16.417969 L 1.414062 -3.398438 L 4.8125 -3.398438 L 4.8125 0 L 11.605469 0 L 11.605469 -3.398438 L 4.8125 -3.398438 L 4.8125 -16.417969 Z M 4.8125 -19.8125 L 4.8125 -16.417969 L 11.605469 -16.417969 L 11.605469 -13.019531 L 15.003906 -13.019531 L 15.003906 -16.417969 L 11.605469 -16.417969 L 11.605469 -19.8125 Z M 15.003906 -3.398438 L 15.003906 -9.90625 L 8.207031 -9.90625 L 8.207031 -6.511719 L 11.605469 -6.511719 L 11.605469 -3.398438 Z M 15.003906 -3.398438 "/></g></g></g><g fill="#00ffff" fill-opacity="1"><g transform="translate(58.597916, 25.20308)"><g><path d="M 4.8125 -16.417969 L 11.605469 -16.417969 L 11.605469 -11.605469 L 4.8125 -11.605469 L 4.8125 -16.417969 L 1.414062 -16.417969 L 1.414062 0 L 4.8125 0 L 4.8125 -8.207031 L 11.605469 -8.207031 L 11.605469 0 L 15.003906 0 L 15.003906 -16.417969 L 11.605469 -16.417969 L 11.605469 -19.8125 L 4.8125 -19.8125 Z M 4.8125 -16.417969 "/></g></g></g><g fill="#00ffff" fill-opacity="1"><g transform="translate(78.01471, 25.20308)"><g><path d="M 1.414062 -3.398438 L 1.414062 0 L 4.8125 0 L 4.8125 -3.398438 Z M 1.414062 -3.398438 "/></g></g></g><g fill="#00ffff" fill-opacity="1"><g transform="translate(87.270448, 25.20308)"><g><path d="M 1.414062 -3.398438 L 1.414062 0 L 4.8125 0 L 4.8125 -3.398438 Z M 1.414062 -3.398438 "/></g></g></g><g fill="#3b1b72" fill-opacity="1"><g transform="translate(38.088483, 24.937711)"><g><path d="M 1.414062 -16.417969 L 1.414062 -3.398438 L 4.8125 -3.398438 L 4.8125 0 L 11.605469 0 L 11.605469 -3.398438 L 4.8125 -3.398438 L 4.8125 -16.417969 Z M 4.8125 -19.8125 L 4.8125 -16.417969 L 11.605469 -16.417969 L 11.605469 -13.019531 L 15.003906 -13.019531 L 15.003906 -16.417969 L 11.605469 -16.417969 L 11.605469 -19.8125 Z M 15.003906 -3.398438 L 15.003906 -9.90625 L 8.207031 -9.90625 L 8.207031 -6.511719 L 11.605469 -6.511719 L 11.605469 -3.398438 Z M 15.003906 -3.398438 "/></g></g></g><g fill="#3b1b72" fill-opacity="1"><g transform="translate(57.533581, 24.937711)"><g><path d="M 4.8125 -16.417969 L 11.605469 -16.417969 L 11.605469 -11.605469 L 4.8125 -11.605469 L 4.8125 -16.417969 L 1.414062 -16.417969 L 1.414062 0 L 4.8125 0 L 4.8125 -8.207031 L 11.605469 -8.207031 L 11.605469 0 L 15.003906 0 L 15.003906 -16.417969 L 11.605469 -16.417969 L 11.605469 -19.8125 L 4.8125 -19.8125 Z M 4.8125 -16.417969 "/></g></g></g><g fill="#3b1b72" fill-opacity="1"><g transform="translate(76.950375, 24.937711)"><g><path d="M 1.414062 -3.398438 L 1.414062 0 L 4.8125 0 L 4.8125 -3.398438 Z M 1.414062 -3.398438 "/></g></g></g><g fill="#3b1b72" fill-opacity="1"><g transform="translate(86.206113, 24.937711)"><g><path d="M 1.414062 -3.398438 L 1.414062 0 L 4.8125 0 L 4.8125 -3.398438 Z M 1.414062 -3.398438 "/></g></g></g></svg>