<svg xmlns="http://www.w3.org/2000/svg" xmlns:xlink="http://www.w3.org/1999/xlink" width="175" zoomAndPan="magnify" viewBox="0 0 131.25 30.000001" height="40" preserveAspectRatio="xMidYMid meet" version="1.0"><defs><g/></defs><g fill="#ff00ff" fill-opacity="1"><g transform="translate(32.396354, 24.672335)"><g><path d="M 1.414062 -16.417969 L 1.414062 -3.398438 L 4.8125 -3.398438 L 4.8125 0 L 11.605469 0 L 11.605469 -3.398438 L 4.8125 -3.398438 L 4.8125 -16.417969 Z M 4.8125 -19.8125 L 4.8125 -16.417969 L 11.605469 -16.417969 L 11.605469 -13.019531 L 15.003906 -13.019531 L 15.003906 -16.417969 L 11.605469 -16.417969 L 11.605469 -19.8125 Z M 15.003906 -3.398438 L 15.003906 -9.90625 L 8.207031 -9.90625 L 8.207031 -6.511719 L 11.605469 -6.511719 L 11.605469 -3.398438 Z M 15.003906 -3.398438 "/></g></g></g><g fill="#ff00ff" fill-opacity="1"><g transform="translate(51.841452, 24.672335)"><g><path d="M 4.8125 -16.417969 L 11.605469 -16.417969 L 11.605469 -11.605469 L 4.8125 -11.605469 L 4.8125 -16.417969 L 1.414062 -16.417969 L 1.414062 0 L 4.8125 0 L 4.8125 -8.207031 L 11.605469 -8.207031 L 11.605469 0 L 15.003906 0 L 15.003906 -16.417969 L 11.605469 -16.417969 L 11.605469 -19.8125 L 4.8125 -19.8125 Z M 4.8125 -16.417969 "/></g></g></g><g fill="#ff00ff" fill-opacity="1"><g transform="translate(71.258246, 24.672335)"><g><path d="M 1.414062 -3.398438 L 1.414062 0 L 4.8125 0 L 4.8125 -3.398438 Z M 1.414062 -3.398438 "/></g></g></g><g fill="#ff00ff" fill-opacity="1"><g transform="translate(80.513984, 24.672335)"><g><path d="M 1.414062 -3.398438 L 1.414062 0 L 4.8125 0 L 4.8125 -3.398438 Z M 1.414062 -3.398438 "/></g></g></g><g fill="#ff00ff" fill-opacity="1"><g transform="translate(89.769726, 24.672335)"><g><path d="M 1.414062 -3.398438 L 1.414062 0 L 4.8125 0 L 4.8125 -3.398438 Z M 1.414062 -3.398438 "/></g></g></g><g fill="#00ffff" fill-opacity="1"><g transform="translate(34.525025, 25.203073)"><g><path d="M 1.414062 -16.417969 L 1.414062 -3.398438 L 4.8125 -3.398438 L 4.8125 0 L 11.605469 0 L 11.605469 -3.398438 L 4.8125 -3.398438 L 4.8125 -16.417969 Z M 4.8125 -19.8125 L 4.8125 -16.417969 L 11.605469 -16.417969 L 11.605469 -13.019531 L 15.003906 -13.019531 L 15.003906 -16.417969 L 11.605469 -16.417969 L 11.605469 -19.8125 Z M 15.003906 -3.398438 L 15.003906 -9.90625 L 8.207031 -9.90625 L 8.207031 -6.511719 L 11.605469 -6.511719 L 11.605469 -3.398438 Z M 15.003906 -3.398438 "/></g></g></g><g fill="#00ffff" fill-opacity="1"><g transform="translate(53.970122, 25.203073)"><g><path d="M 4.8125 -16.417969 L 11.605469 -16.417969 L 11.605469 -11.605469 L 4.8125 -11.605469 L 4.8125 -16.417969 L 1.414062 -16.417969 L 1.414062 0 L 4.8125 0 L 4.8125 -8.207031 L 11.605469 -8.207031 L 11.605469 0 L 15.003906 0 L 15.003906 -16.417969 L 11.605469 -16.417969 L 11.605469 -19.8125 L 4.8125 -19.8125 Z M 4.8125 -16.417969 "/></g></g></g><g fill="#00ffff" fill-opacity="1"><g transform="translate(73.386916, 25.203073)"><g><path d="M 1.414062 -3.398438 L 1.414062 0 L 4.8125 0 L 4.8125 -3.398438 Z M 1.414062 -3.398438 "/></g></g></g><g fill="#00ffff" fill-opacity="1"><g transform="translate(82.642654, 25.203073)"><g><path d="M 1.414062 -3.398438 L 1.414062 0 L 4.8125 0 L 4.8125 -3.398438 Z M 1.414062 -3.398438 "/></g></g></g><g fill="#00ffff" fill-opacity="1"><g transform="translate(91.898396, 25.203073)"><g><path d="M 1.414062 -3.398438 L 1.414062 0 L 4.8125 0 L 4.8125 -3.398438 Z M 1.414062 -3.398438 "/></g></g></g><g fill="#3b1b72" fill-opacity="1"><g transform="translate(33.460689, 24.937704)"><g><path d="M 1.414062 -16.417969 L 1.414062 -3.398438 L 4.8125 -3.398438 L 4.8125 0 L 11.605469 0 L 11.605469 -3.398438 L 4.8125 -3.398438 L 4.8125 -16.417969 Z M 4.8125 -19.8125 L 4.8125 -16.417969 L 11.605469 -16.417969 L 11.605469 -13.019531 L 15.003906 -13.019531 L 15.003906 -16.417969 L 11.605469 -16.417969 L 11.605469 -19.8125 Z M 15.003906 -3.398438 L 15.003906 -9.90625 L 8.207031 -9.90625 L 8.207031 -6.511719 L 11.605469 -6.511719 L 11.605469 -3.398438 Z M 15.003906 -3.398438 "/></g></g></g><g fill="#3b1b72" fill-opacity="1"><g transform="translate(52.905787, 24.937704)"><g><path d="M 4.8125 -16.417969 L 11.605469 -16.417969 L 11.605469 -11.605469 L 4.8125 -11.605469 L 4.8125 -16.417969 L 1.414062 -16.417969 L 1.414062 0 L 4.8125 0 L 4.8125 -8.207031 L 11.605469 -8.207031 L 11.605469 0 L 15.003906 0 L 15.003906 -16.417969 L 11.605469 -16.417969 L 11.605469 -19.8125 L 4.8125 -19.8125 Z M 4.8125 -16.417969 "/></g></g></g><g fill="#3b1b72" fill-opacity="1"><g transform="translate(72.322581, 24.937704)"><g><path d="M 1.414062 -3.398438 L 1.414062 0 L 4.8125 0 L 4.8125 -3.398438 Z M 1.414062 -3.398438 "/></g></g></g><g fill="#3b1b72" fill-opacity="1"><g transform="translate(81.578319, 24.937704)"><g><path d="M 1.414062 -3.398438 L 1.414062 0 L 4.8125 0 L 4.8125 -3.398438 Z M 1.414062 -3.398438 "/></g></g></g><g fill="#3b1b72" fill-opacity="1"><g transform="translate(90.834061, 24.937704)"><g><path d="M 1.414062 -3.398438 L 1.414062 0 L 4.8125 0 L 4.8125 -3.398438 Z M 1.414062 -3.398438 "/></g></g></g></svg>