<svg xmlns="http://www.w3.org/2000/svg" xmlns:xlink="http://www.w3.org/1999/xlink" width="287" zoomAndPan="magnify" viewBox="0 0 215.25 30.000001" height="40" preserveAspectRatio="xMidYMid meet" version="1.0"><defs><g/></defs><g fill="#ffffff" fill-opacity="1"><g transform="translate(25.386226, 21.40355)"><g><path d="M 6.453125 -0.5625 C 5.660156 -0.5625 4.9375 -0.707031 4.28125 -1 C 3.625 -1.289062 3.050781 -1.691406 2.5625 -2.203125 C 2.070312 -2.710938 1.691406 -3.300781 1.421875 -3.96875 C 1.148438 -4.632812 1.015625 -5.34375 1.015625 -6.09375 C 1.015625 -6.84375 1.148438 -7.546875 1.421875 -8.203125 C 1.691406 -8.867188 2.070312 -9.445312 2.5625 -9.9375 C 3.050781 -10.4375 3.625 -10.828125 4.28125 -11.109375 C 4.9375 -11.390625 5.660156 -11.53125 6.453125 -11.53125 C 7.234375 -11.53125 7.910156 -11.410156 8.484375 -11.171875 C 9.066406 -10.941406 9.582031 -10.609375 10.03125 -10.171875 L 10.5 -11.265625 L 12.28125 -11.265625 C 12.28125 -11.222656 12.28125 -11.164062 12.28125 -11.09375 C 12.28125 -11.019531 12.28125 -10.878906 12.28125 -10.671875 C 12.28125 -10.472656 12.28125 -10.1875 12.28125 -9.8125 C 12.28125 -9.4375 12.28125 -8.914062 12.28125 -8.25 C 12.28125 -7.59375 12.285156 -6.769531 12.296875 -5.78125 C 12.304688 -4.800781 12.3125 -3.601562 12.3125 -2.1875 C 12.3125 -1.71875 12.296875 -1.257812 12.265625 -0.8125 C 12.234375 -0.363281 12.164062 0.0664062 12.0625 0.484375 C 11.957031 0.898438 11.804688 1.300781 11.609375 1.6875 C 11.410156 2.070312 11.148438 2.441406 10.828125 2.796875 C 10.203125 3.453125 9.488281 3.894531 8.6875 4.125 C 7.894531 4.351562 7.0625 4.46875 6.1875 4.46875 C 5.4375 4.46875 4.726562 4.375 4.0625 4.1875 C 3.394531 4 2.796875 3.75 2.265625 3.4375 L 2.265625 0.890625 C 2.578125 1.347656 3.066406 1.71875 3.734375 2 C 4.398438 2.28125 5.15625 2.421875 6 2.421875 C 6.5625 2.421875 7.085938 2.347656 7.578125 2.203125 C 8.066406 2.054688 8.488281 1.828125 8.84375 1.515625 C 9.207031 1.210938 9.492188 0.816406 9.703125 0.328125 C 9.921875 -0.160156 10.03125 -0.738281 10.03125 -1.40625 L 10.03125 -1.859375 C 9.832031 -1.679688 9.597656 -1.515625 9.328125 -1.359375 C 9.054688 -1.203125 8.757812 -1.066406 8.4375 -0.953125 C 8.113281 -0.835938 7.78125 -0.742188 7.4375 -0.671875 C 7.09375 -0.597656 6.765625 -0.5625 6.453125 -0.5625 Z M 6.65625 -9.453125 C 6.207031 -9.453125 5.773438 -9.363281 5.359375 -9.1875 C 4.953125 -9.019531 4.59375 -8.785156 4.28125 -8.484375 C 3.976562 -8.179688 3.738281 -7.820312 3.5625 -7.40625 C 3.394531 -7 3.3125 -6.5625 3.3125 -6.09375 C 3.3125 -5.625 3.394531 -5.179688 3.5625 -4.765625 C 3.738281 -4.347656 3.976562 -3.984375 4.28125 -3.671875 C 4.59375 -3.367188 4.953125 -3.128906 5.359375 -2.953125 C 5.773438 -2.773438 6.207031 -2.6875 6.65625 -2.6875 C 7.113281 -2.6875 7.546875 -2.753906 7.953125 -2.890625 C 8.359375 -3.035156 8.707031 -3.25 9 -3.53125 C 9.300781 -3.8125 9.539062 -4.160156 9.71875 -4.578125 C 9.894531 -5.003906 9.984375 -5.507812 9.984375 -6.09375 C 9.984375 -6.707031 9.894531 -7.226562 9.71875 -7.65625 C 9.539062 -8.09375 9.300781 -8.441406 9 -8.703125 C 8.707031 -8.972656 8.359375 -9.164062 7.953125 -9.28125 C 7.546875 -9.394531 7.113281 -9.453125 6.65625 -9.453125 Z M 6.65625 -9.453125 "/></g></g></g><g fill="#ffffff" fill-opacity="1"><g transform="translate(39.293622, 21.40355)"><g><path d="M 12 -11.265625 L 12 0 L 10.078125 0 L 9.71875 -1.296875 C 9.320312 -0.773438 8.816406 -0.378906 8.203125 -0.109375 C 7.597656 0.148438 6.984375 0.28125 6.359375 0.28125 C 5.566406 0.28125 4.828125 0.128906 4.140625 -0.171875 C 3.460938 -0.484375 2.867188 -0.90625 2.359375 -1.4375 C 1.847656 -1.96875 1.441406 -2.59375 1.140625 -3.3125 C 0.847656 -4.039062 0.703125 -4.8125 0.703125 -5.625 C 0.703125 -6.4375 0.847656 -7.203125 1.140625 -7.921875 C 1.441406 -8.648438 1.847656 -9.28125 2.359375 -9.8125 C 2.867188 -10.34375 3.460938 -10.757812 4.140625 -11.0625 C 4.828125 -11.375 5.566406 -11.53125 6.359375 -11.53125 C 6.984375 -11.53125 7.582031 -11.40625 8.15625 -11.15625 C 8.738281 -10.914062 9.257812 -10.539062 9.71875 -10.03125 L 10.078125 -11.265625 Z M 6.359375 -1.734375 C 6.804688 -1.734375 7.234375 -1.835938 7.640625 -2.046875 C 8.054688 -2.253906 8.410156 -2.53125 8.703125 -2.875 C 9.003906 -3.226562 9.238281 -3.640625 9.40625 -4.109375 C 9.582031 -4.585938 9.671875 -5.09375 9.671875 -5.625 C 9.671875 -6.15625 9.582031 -6.65625 9.40625 -7.125 C 9.238281 -7.59375 9.003906 -8.003906 8.703125 -8.359375 C 8.410156 -8.710938 8.054688 -8.988281 7.640625 -9.1875 C 7.234375 -9.394531 6.804688 -9.5 6.359375 -9.5 C 5.898438 -9.5 5.46875 -9.394531 5.0625 -9.1875 C 4.65625 -8.988281 4.300781 -8.710938 4 -8.359375 C 3.695312 -8.003906 3.457031 -7.59375 3.28125 -7.125 C 3.113281 -6.65625 3.03125 -6.15625 3.03125 -5.625 C 3.03125 -5.09375 3.113281 -4.585938 3.28125 -4.109375 C 3.457031 -3.640625 3.695312 -3.226562 4 -2.875 C 4.300781 -2.53125 4.65625 -2.253906 5.0625 -2.046875 C 5.46875 -1.835938 5.898438 -1.734375 6.359375 -1.734375 Z M 6.359375 -1.734375 "/></g></g></g><g fill="#ffffff" fill-opacity="1"><g transform="translate(52.306806, 21.40355)"><g><path d="M 3.203125 0 L 1.390625 0 L 1.390625 -17.171875 L 3.671875 -17.171875 L 3.671875 -10.046875 C 4.109375 -10.515625 4.617188 -10.878906 5.203125 -11.140625 C 5.785156 -11.398438 6.457031 -11.53125 7.21875 -11.53125 C 8.007812 -11.53125 8.738281 -11.375 9.40625 -11.0625 C 10.070312 -10.757812 10.644531 -10.34375 11.125 -9.8125 C 11.613281 -9.28125 11.992188 -8.648438 12.265625 -7.921875 C 12.546875 -7.203125 12.6875 -6.4375 12.6875 -5.625 C 12.6875 -4.8125 12.546875 -4.039062 12.265625 -3.3125 C 11.992188 -2.59375 11.613281 -1.96875 11.125 -1.4375 C 10.644531 -0.90625 10.070312 -0.484375 9.40625 -0.171875 C 8.738281 0.128906 8.007812 0.28125 7.21875 0.28125 C 6.488281 0.28125 5.828125 0.148438 5.234375 -0.109375 C 4.648438 -0.367188 4.128906 -0.722656 3.671875 -1.171875 Z M 7.03125 -9.453125 C 6.582031 -9.453125 6.148438 -9.382812 5.734375 -9.25 C 5.328125 -9.125 4.972656 -8.90625 4.671875 -8.59375 C 4.367188 -8.289062 4.128906 -7.894531 3.953125 -7.40625 C 3.773438 -6.925781 3.6875 -6.332031 3.6875 -5.625 C 3.6875 -4.96875 3.773438 -4.394531 3.953125 -3.90625 C 4.128906 -3.414062 4.367188 -3.007812 4.671875 -2.6875 C 4.972656 -2.375 5.328125 -2.132812 5.734375 -1.96875 C 6.148438 -1.8125 6.582031 -1.734375 7.03125 -1.734375 C 7.488281 -1.734375 7.921875 -1.835938 8.328125 -2.046875 C 8.734375 -2.253906 9.085938 -2.53125 9.390625 -2.875 C 9.691406 -3.226562 9.925781 -3.640625 10.09375 -4.109375 C 10.269531 -4.585938 10.359375 -5.09375 10.359375 -5.625 C 10.359375 -6.15625 10.269531 -6.65625 10.09375 -7.125 C 9.925781 -7.59375 9.691406 -8 9.390625 -8.34375 C 9.085938 -8.695312 8.734375 -8.96875 8.328125 -9.15625 C 7.921875 -9.351562 7.488281 -9.453125 7.03125 -9.453125 Z M 7.03125 -9.453125 "/></g></g></g><g fill="#ffffff" fill-opacity="1"><g transform="translate(66.02595, 21.40355)"><g><path d="M 8.9375 -1.015625 C 8.550781 -0.648438 8.09375 -0.347656 7.5625 -0.109375 C 7.039062 0.117188 6.457031 0.234375 5.8125 0.234375 C 5.40625 0.234375 4.941406 0.171875 4.421875 0.046875 C 3.898438 -0.0664062 3.414062 -0.296875 2.96875 -0.640625 C 2.53125 -0.984375 2.15625 -1.457031 1.84375 -2.0625 C 1.539062 -2.664062 1.390625 -3.453125 1.390625 -4.421875 L 1.390625 -11.265625 L 3.546875 -11.265625 L 3.546875 -4.421875 C 3.546875 -3.929688 3.617188 -3.519531 3.765625 -3.1875 C 3.921875 -2.851562 4.117188 -2.582031 4.359375 -2.375 C 4.609375 -2.175781 4.890625 -2.023438 5.203125 -1.921875 C 5.515625 -1.828125 5.835938 -1.78125 6.171875 -1.78125 C 6.421875 -1.78125 6.703125 -1.828125 7.015625 -1.921875 C 7.335938 -2.023438 7.640625 -2.179688 7.921875 -2.390625 C 8.210938 -2.597656 8.453125 -2.863281 8.640625 -3.1875 C 8.835938 -3.519531 8.9375 -3.925781 8.9375 -4.40625 L 8.9375 -11.265625 L 11.21875 -11.265625 L 11.21875 0 L 9.40625 0 Z M 8.9375 -1.015625 "/></g></g></g><g fill="#ffffff" fill-opacity="1"><g transform="translate(78.615551, 21.40355)"><g><path d="M 3.59375 0 L 1.3125 0 L 1.3125 -17.171875 L 3.59375 -17.171875 L 3.59375 -10.234375 C 4.019531 -10.703125 4.460938 -11.035156 4.921875 -11.234375 C 5.390625 -11.429688 5.929688 -11.53125 6.546875 -11.53125 C 7.328125 -11.53125 8.023438 -11.375 8.640625 -11.0625 C 9.265625 -10.757812 9.796875 -10.34375 10.234375 -9.8125 C 10.671875 -9.28125 11.003906 -8.648438 11.234375 -7.921875 C 11.460938 -7.203125 11.578125 -6.4375 11.578125 -5.625 L 11.578125 0 L 9.265625 0 L 9.265625 -5.625 C 9.265625 -6.15625 9.191406 -6.65625 9.046875 -7.125 C 8.898438 -7.59375 8.695312 -8 8.4375 -8.34375 C 8.175781 -8.695312 7.875 -8.96875 7.53125 -9.15625 C 7.195312 -9.351562 6.835938 -9.453125 6.453125 -9.453125 C 6.117188 -9.453125 5.785156 -9.382812 5.453125 -9.25 C 5.128906 -9.125 4.828125 -8.910156 4.546875 -8.609375 C 4.273438 -8.316406 4.046875 -7.925781 3.859375 -7.4375 C 3.679688 -6.945312 3.59375 -6.359375 3.59375 -5.671875 Z M 3.59375 0 "/></g></g></g><g fill="#49aa26" fill-opacity="1"><g transform="translate(91.366568, 21.40355)"><g><path d="M 1.015625 -1.21875 C 1.015625 -1.625 1.15625 -1.972656 1.4375 -2.265625 C 1.71875 -2.554688 2.0625 -2.703125 2.46875 -2.703125 C 2.875 -2.703125 3.21875 -2.554688 3.5 -2.265625 C 3.789062 -1.972656 3.9375 -1.625 3.9375 -1.21875 C 3.9375 -0.8125 3.789062 -0.46875 3.5 -0.1875 C 3.21875 0.09375 2.875 0.234375 2.46875 0.234375 C 2.0625 0.234375 1.71875 0.09375 1.4375 -0.1875 C 1.15625 -0.46875 1.015625 -0.8125 1.015625 -1.21875 Z M 1.015625 -1.21875 "/></g></g></g><g fill="#ffffff" fill-opacity="1"><g transform="translate(96.980227, 21.40355)"><g><path d="M 2.9375 0 L 2.9375 -9.21875 L 1.015625 -9.21875 L 1.015625 -10.796875 L 2.9375 -11.265625 L 2.9375 -12.640625 C 2.9375 -13.441406 3.035156 -14.132812 3.234375 -14.71875 C 3.441406 -15.300781 3.722656 -15.78125 4.078125 -16.15625 C 4.429688 -16.539062 4.835938 -16.820312 5.296875 -17 C 5.753906 -17.175781 6.238281 -17.265625 6.75 -17.265625 C 7.394531 -17.265625 8.046875 -17.132812 8.703125 -16.875 L 8.703125 -15.203125 C 8.140625 -15.367188 7.65625 -15.453125 7.25 -15.453125 C 6.601562 -15.453125 6.101562 -15.253906 5.75 -14.859375 C 5.394531 -14.472656 5.21875 -13.847656 5.21875 -12.984375 L 5.21875 -11.265625 L 8.703125 -11.265625 L 8.703125 -9.21875 L 5.21875 -9.21875 L 5.21875 0 Z M 2.9375 0 "/></g></g></g><g fill="#ffffff" fill-opacity="1"><g transform="translate(105.922378, 21.40355)"><g><path d="M 3.6875 0 L 1.40625 0 L 1.40625 -11.265625 L 3.671875 -11.265625 Z M 2.546875 -13.71875 C 2.128906 -13.71875 1.78125 -13.863281 1.5 -14.15625 C 1.21875 -14.445312 1.078125 -14.796875 1.078125 -15.203125 C 1.078125 -15.609375 1.21875 -15.953125 1.5 -16.234375 C 1.78125 -16.515625 2.128906 -16.65625 2.546875 -16.65625 C 2.953125 -16.65625 3.296875 -16.515625 3.578125 -16.234375 C 3.859375 -15.953125 4 -15.609375 4 -15.203125 C 4 -14.796875 3.859375 -14.445312 3.578125 -14.15625 C 3.296875 -13.863281 2.953125 -13.71875 2.546875 -13.71875 Z M 2.546875 -13.71875 "/></g></g></g><g fill="#ffffff" fill-opacity="1"><g transform="translate(110.864088, 21.40355)"><g><path d="M 3.546875 0 L 1.265625 0 L 1.265625 -11.265625 L 3.078125 -11.265625 L 3.546875 -10.28125 C 3.929688 -10.644531 4.390625 -10.941406 4.921875 -11.171875 C 5.453125 -11.410156 6.03125 -11.53125 6.65625 -11.53125 C 7.0625 -11.53125 7.523438 -11.46875 8.046875 -11.34375 C 8.566406 -11.21875 9.050781 -10.984375 9.5 -10.640625 C 9.945312 -10.296875 10.320312 -9.816406 10.625 -9.203125 C 10.925781 -8.585938 11.078125 -7.796875 11.078125 -6.828125 L 11.078125 0 L 8.921875 0 L 8.921875 -6.84375 C 8.921875 -7.332031 8.84375 -7.742188 8.6875 -8.078125 C 8.539062 -8.421875 8.34375 -8.691406 8.09375 -8.890625 C 7.851562 -9.097656 7.582031 -9.242188 7.28125 -9.328125 C 6.976562 -9.410156 6.660156 -9.453125 6.328125 -9.453125 C 6.078125 -9.453125 5.789062 -9.40625 5.46875 -9.3125 C 5.144531 -9.21875 4.84375 -9.066406 4.5625 -8.859375 C 4.28125 -8.648438 4.039062 -8.382812 3.84375 -8.0625 C 3.644531 -7.738281 3.546875 -7.34375 3.546875 -6.875 Z M 3.546875 0 "/></g></g></g><g fill="#ffffff" fill-opacity="1"><g transform="translate(123.430166, 21.40355)"><g><path d="M 12 -11.265625 L 12 0 L 10.078125 0 L 9.71875 -1.296875 C 9.320312 -0.773438 8.816406 -0.378906 8.203125 -0.109375 C 7.597656 0.148438 6.984375 0.28125 6.359375 0.28125 C 5.566406 0.28125 4.828125 0.128906 4.140625 -0.171875 C 3.460938 -0.484375 2.867188 -0.90625 2.359375 -1.4375 C 1.847656 -1.96875 1.441406 -2.59375 1.140625 -3.3125 C 0.847656 -4.039062 0.703125 -4.8125 0.703125 -5.625 C 0.703125 -6.4375 0.847656 -7.203125 1.140625 -7.921875 C 1.441406 -8.648438 1.847656 -9.28125 2.359375 -9.8125 C 2.867188 -10.34375 3.460938 -10.757812 4.140625 -11.0625 C 4.828125 -11.375 5.566406 -11.53125 6.359375 -11.53125 C 6.984375 -11.53125 7.582031 -11.40625 8.15625 -11.15625 C 8.738281 -10.914062 9.257812 -10.539062 9.71875 -10.03125 L 10.078125 -11.265625 Z M 6.359375 -1.734375 C 6.804688 -1.734375 7.234375 -1.835938 7.640625 -2.046875 C 8.054688 -2.253906 8.410156 -2.53125 8.703125 -2.875 C 9.003906 -3.226562 9.238281 -3.640625 9.40625 -4.109375 C 9.582031 -4.585938 9.671875 -5.09375 9.671875 -5.625 C 9.671875 -6.15625 9.582031 -6.65625 9.40625 -7.125 C 9.238281 -7.59375 9.003906 -8.003906 8.703125 -8.359375 C 8.410156 -8.710938 8.054688 -8.988281 7.640625 -9.1875 C 7.234375 -9.394531 6.804688 -9.5 6.359375 -9.5 C 5.898438 -9.5 5.46875 -9.394531 5.0625 -9.1875 C 4.65625 -8.988281 4.300781 -8.710938 4 -8.359375 C 3.695312 -8.003906 3.457031 -7.59375 3.28125 -7.125 C 3.113281 -6.65625 3.03125 -6.15625 3.03125 -5.625 C 3.03125 -5.09375 3.113281 -4.585938 3.28125 -4.109375 C 3.457031 -3.640625 3.695312 -3.226562 4 -2.875 C 4.300781 -2.53125 4.65625 -2.253906 5.0625 -2.046875 C 5.46875 -1.835938 5.898438 -1.734375 6.359375 -1.734375 Z M 6.359375 -1.734375 "/></g></g></g><g fill="#ffffff" fill-opacity="1"><g transform="translate(136.44335, 21.40355)"><g><path d="M 3.546875 0 L 1.265625 0 L 1.265625 -11.265625 L 3.078125 -11.265625 L 3.546875 -10.28125 C 3.929688 -10.644531 4.390625 -10.941406 4.921875 -11.171875 C 5.453125 -11.410156 6.03125 -11.53125 6.65625 -11.53125 C 7.0625 -11.53125 7.523438 -11.46875 8.046875 -11.34375 C 8.566406 -11.21875 9.050781 -10.984375 9.5 -10.640625 C 9.945312 -10.296875 10.320312 -9.816406 10.625 -9.203125 C 10.925781 -8.585938 11.078125 -7.796875 11.078125 -6.828125 L 11.078125 0 L 8.921875 0 L 8.921875 -6.84375 C 8.921875 -7.332031 8.84375 -7.742188 8.6875 -8.078125 C 8.539062 -8.421875 8.34375 -8.691406 8.09375 -8.890625 C 7.851562 -9.097656 7.582031 -9.242188 7.28125 -9.328125 C 6.976562 -9.410156 6.660156 -9.453125 6.328125 -9.453125 C 6.078125 -9.453125 5.789062 -9.40625 5.46875 -9.3125 C 5.144531 -9.21875 4.84375 -9.066406 4.5625 -8.859375 C 4.28125 -8.648438 4.039062 -8.382812 3.84375 -8.0625 C 3.644531 -7.738281 3.546875 -7.34375 3.546875 -6.875 Z M 3.546875 0 "/></g></g></g><g fill="#ffffff" fill-opacity="1"><g transform="translate(149.009428, 21.40355)"><g><path d="M 6.5 0.28125 C 5.707031 0.28125 4.96875 0.128906 4.28125 -0.171875 C 3.601562 -0.484375 3.007812 -0.90625 2.5 -1.4375 C 1.988281 -1.96875 1.582031 -2.59375 1.28125 -3.3125 C 0.988281 -4.039062 0.84375 -4.8125 0.84375 -5.625 C 0.84375 -6.4375 0.988281 -7.203125 1.28125 -7.921875 C 1.582031 -8.648438 1.988281 -9.28125 2.5 -9.8125 C 3.007812 -10.34375 3.601562 -10.757812 4.28125 -11.0625 C 4.96875 -11.375 5.707031 -11.53125 6.5 -11.53125 C 7.40625 -11.53125 8.242188 -11.328125 9.015625 -10.921875 C 9.785156 -10.515625 10.425781 -9.957031 10.9375 -9.25 L 9.34375 -8 C 9.03125 -8.457031 8.632812 -8.8125 8.15625 -9.0625 C 7.675781 -9.320312 7.160156 -9.453125 6.609375 -9.453125 C 6.140625 -9.453125 5.691406 -9.351562 5.265625 -9.15625 C 4.847656 -8.96875 4.476562 -8.695312 4.15625 -8.34375 C 3.84375 -8 3.597656 -7.59375 3.421875 -7.125 C 3.242188 -6.65625 3.15625 -6.15625 3.15625 -5.625 C 3.15625 -5.09375 3.242188 -4.585938 3.421875 -4.109375 C 3.597656 -3.640625 3.84375 -3.226562 4.15625 -2.875 C 4.476562 -2.53125 4.847656 -2.253906 5.265625 -2.046875 C 5.691406 -1.835938 6.140625 -1.734375 6.609375 -1.734375 C 7.222656 -1.734375 7.78125 -1.898438 8.28125 -2.234375 C 8.78125 -2.566406 9.1875 -3.003906 9.5 -3.546875 L 11.0625 -2.1875 C 10.5625 -1.4375 9.910156 -0.835938 9.109375 -0.390625 C 8.304688 0.0546875 7.4375 0.28125 6.5 0.28125 Z M 6.5 0.28125 "/></g></g></g><g fill="#ffffff" fill-opacity="1"><g transform="translate(160.963672, 21.40355)"><g><path d="M 6.65625 0.28125 C 5.84375 0.28125 5.078125 0.128906 4.359375 -0.171875 C 3.648438 -0.484375 3.023438 -0.90625 2.484375 -1.4375 C 1.953125 -1.96875 1.535156 -2.59375 1.234375 -3.3125 C 0.929688 -4.039062 0.78125 -4.8125 0.78125 -5.625 C 0.78125 -6.4375 0.921875 -7.203125 1.203125 -7.921875 C 1.492188 -8.648438 1.882812 -9.28125 2.375 -9.8125 C 2.875 -10.34375 3.453125 -10.757812 4.109375 -11.0625 C 4.773438 -11.375 5.484375 -11.53125 6.234375 -11.53125 C 7.003906 -11.53125 7.710938 -11.394531 8.359375 -11.125 C 9.015625 -10.863281 9.582031 -10.445312 10.0625 -9.875 C 10.539062 -9.3125 10.910156 -8.59375 11.171875 -7.71875 C 11.441406 -6.851562 11.578125 -5.816406 11.578125 -4.609375 L 3.203125 -4.609375 C 3.304688 -4.203125 3.476562 -3.820312 3.71875 -3.46875 C 3.957031 -3.113281 4.234375 -2.804688 4.546875 -2.546875 C 4.867188 -2.296875 5.226562 -2.097656 5.625 -1.953125 C 6.03125 -1.804688 6.453125 -1.734375 6.890625 -1.734375 C 7.484375 -1.734375 8.035156 -1.84375 8.546875 -2.0625 C 9.054688 -2.289062 9.492188 -2.582031 9.859375 -2.9375 L 11.265625 -1.53125 C 10.722656 -0.976562 10.054688 -0.535156 9.265625 -0.203125 C 8.472656 0.117188 7.601562 0.28125 6.65625 0.28125 Z M 6.234375 -9.453125 C 5.867188 -9.453125 5.523438 -9.378906 5.203125 -9.234375 C 4.890625 -9.097656 4.59375 -8.90625 4.3125 -8.65625 C 4.039062 -8.40625 3.804688 -8.109375 3.609375 -7.765625 C 3.410156 -7.421875 3.265625 -7.046875 3.171875 -6.640625 L 9.125 -6.640625 C 9.09375 -7.015625 9.003906 -7.375 8.859375 -7.71875 C 8.722656 -8.0625 8.53125 -8.363281 8.28125 -8.625 C 8.03125 -8.882812 7.734375 -9.085938 7.390625 -9.234375 C 7.054688 -9.378906 6.671875 -9.453125 6.234375 -9.453125 Z M 6.234375 -9.453125 "/></g></g></g><g fill="#49aa26" fill-opacity="1"><g transform="translate(173.483496, 22.746264)"><g><path d="M 10.46875 -3.359375 C 10.46875 -2.335938 10.101562 -1.515625 9.375 -0.890625 C 8.644531 -0.265625 7.691406 0.101562 6.515625 0.21875 L 6.515625 1.640625 L 5.03125 1.640625 L 5.03125 0.21875 C 3.789062 0.125 2.804688 -0.234375 2.078125 -0.859375 C 1.347656 -1.492188 0.941406 -2.378906 0.859375 -3.515625 L 3.296875 -3.515625 C 3.472656 -2.472656 4.050781 -1.835938 5.03125 -1.609375 L 5.03125 -5.296875 C 3.78125 -5.703125 2.851562 -6.1875 2.25 -6.75 C 1.644531 -7.320312 1.34375 -8.097656 1.34375 -9.078125 C 1.34375 -10.140625 1.6875 -10.984375 2.375 -11.609375 C 3.0625 -12.234375 3.945312 -12.613281 5.03125 -12.75 L 5.03125 -14.15625 L 6.515625 -14.15625 L 6.515625 -12.75 C 7.691406 -12.632812 8.601562 -12.242188 9.25 -11.578125 C 9.894531 -10.910156 10.28125 -10.0625 10.40625 -9.03125 L 7.953125 -9.03125 C 7.828125 -10.050781 7.347656 -10.675781 6.515625 -10.90625 L 6.515625 -7.40625 C 7.929688 -6.957031 8.941406 -6.421875 9.546875 -5.796875 C 10.160156 -5.171875 10.46875 -4.359375 10.46875 -3.359375 Z M 3.71875 -9.375 C 3.71875 -8.9375 3.820312 -8.585938 4.03125 -8.328125 C 4.25 -8.078125 4.582031 -7.867188 5.03125 -7.703125 L 5.03125 -10.9375 C 4.15625 -10.738281 3.71875 -10.21875 3.71875 -9.375 Z M 6.515625 -4.96875 L 6.515625 -1.578125 C 7.503906 -1.734375 8 -2.265625 8 -3.171875 C 8 -4.015625 7.503906 -4.613281 6.515625 -4.96875 Z M 6.515625 -4.96875 "/></g></g></g></svg>